<svg id="Layer_1" data-name="Layer 1" xmlns="http://www.w3.org/2000/svg" viewBox="0 0 30 30"><defs><style>.cls-1{fill:none;stroke:#538ab6;stroke-miterlimit:10;}</style></defs><title>saker</title><polyline class="cls-1" points="27 5.04 27 27 3 27 3 3 23.39 3"/><polygon class="cls-1" points="17.48 14.35 28.92 2.92 26.5 0.5 15.06 11.93 13.99 15.43 17.48 14.35"/><polyline class="cls-1" points="6 11.11 6 13 7.89 13 9.36 13 13 13 13 9.36"/><polyline class="cls-1" points="6 7.89 6 6 13 6"/><polyline class="cls-1" points="4.5 8.36 8.43 11.5 14.71 6"/><polyline class="cls-1" points="6 23.11 6 25 7.89 25 9.36 25 13 25 13 21.36"/><polyline class="cls-1" points="6 19.89 6 18 13 18"/><polyline class="cls-1" points="4.5 20.36 8.43 23.5 14.71 18"/></svg>